<?xml version="1.0" encoding="utf-8"?>
<!-- Generator: Adobe Illustrator 23.0.3, SVG Export Plug-In . SVG Version: 6.00 Build 0)  -->
<svg version="1.1" id="Layer_1" xmlns="http://www.w3.org/2000/svg" xmlns:xlink="http://www.w3.org/1999/xlink" x="0px" y="0px"
	 viewBox="0 0 111.2 107.4" style="enable-background:new 0 0 111.2 107.4;" xml:space="preserve">
<style type="text/css">
	.st0{fill:#A3E8E8;}
	.st1{fill:#0B8BD7;}
	.st2{fill:#1445CA;}
	.st3{fill:#8FD4D4;}
	.st4{fill:#0077C3;}
	.st5{fill:#1A9AE6;}
	.st6{fill:#0031B6;}
	.st7{fill:none;stroke:#0031B6;stroke-width:0;stroke-linecap:round;stroke-linejoin:round;}
</style>
<g>
	<path class="st0" d="M72,2.7c3.6-2.1,6.8-2.2,9.2-0.8l26.1,15.2c0,0,0.1,0.1,0.1,0.1c-2.3-1.4-5.6-1.2-9.1,0.8L51.4,45l-46-26.7
		c-7.2-4.2-7.2-10.9,0-15.1s18.9-4.2,26.1,0l20,11.4L72,2.7"/>
	<ellipse id="Axonometric_Centered_Ellipse_21_" class="st1" cx="18.5" cy="10.7" rx="11.1" ry="6.4"/>
	<path class="st2" d="M78.1,82.6c0,4.2-1.4,7.1-3.8,8.5l-26.7,15.3c0,0,0,0,0,0c2.3-1.4,3.8-4.3,3.8-8.5l0-53l46.8-27
		c7.1-4.1,12.9-0.7,12.9,7.7c0,8.4-5.8,18.5-12.9,22.6L78.1,59.9L78.1,82.6z"/>
	
		<ellipse id="Axonometric_Centered_Ellipse_20_" transform="matrix(0.4895 -0.872 0.872 0.4895 21.2408 102.6172)" class="st0" cx="98.3" cy="33.2" rx="11.1" ry="6.4"/>
	
		<ellipse id="Axonometric_Centered_Ellipse_28_" transform="matrix(0.4895 -0.872 0.872 0.4895 21.2408 102.6172)" class="st0" cx="98.3" cy="33.2" rx="11.1" ry="6.4"/>
	<path class="st1" d="M25.5,83c0,8.4,5.8,18.5,12.9,22.6c7.1,4.1,12.9,0.7,12.9-7.7l0-53l-46-26.7C1.8,16.1,0,13.4,0,10.7v30.6
		c0,2.7,1.8,5.5,5.4,7.5l20.1,11.6L25.5,83z"/>
	
		<ellipse id="Axonometric_Centered_Ellipse_19_" transform="matrix(0.872 -0.4895 0.4895 0.872 -39.3517 30.4143)" class="st2" cx="38.5" cy="90.5" rx="6.4" ry="11.1"/>
	<path class="st3" d="M81.2,1.9c-2-1.2-4.6-1.3-7.5,0L100,17.2c2.6-1.1,5-1.2,6.8-0.3c0,0,0.1,0,0.1,0L81.2,1.9z"/>
	<path class="st3" d="M104.1,35.8l-11-6.4c-0.3,0.6-0.7,1.2-1,1.8l11,6.4C103.4,37,103.8,36.4,104.1,35.8z"/>
	<path class="st3" d="M90.5,37.7c0,5,3.5,7.1,7.8,4.6c1.3-0.8,2.5-1.8,3.6-3.1L91.4,33C90.8,34.6,90.5,36.1,90.5,37.7z"/>
	<path class="st4" d="M10.6,6.1C8.5,7.4,7.4,9,7.4,10.7c0,1.6,1.1,3.3,3.3,4.5c1.4,0.8,3,1.3,4.7,1.6V4.5C13.7,4.8,12,5.4,10.6,6.1z
		"/>
	<path class="st4" d="M17.4,4.3V17c0.7,0,1.3,0,2,0V4.3C18.7,4.3,18.1,4.3,17.4,4.3z"/>
	<path class="st5" d="M0,10.7v30.6c0,2.3,1.3,4.6,3.9,6.6V17.2C1.3,15.3,0,13,0,10.7z"/>
	<path class="st6" d="M47.6,106.5C47.6,106.4,47.6,106.4,47.6,106.5l26.7-15.3c2-1.2,3.4-3.6,3.7-6.9L51.3,99.6
		C51,102.9,49.7,105.2,47.6,106.5z"/>
	<g>
		<line class="st7" x1="22.6" y1="91.1" x2="22.6" y2="91.1"/>
		<line class="st7" x1="49.3" y1="75.8" x2="49.3" y2="75.8"/>
	</g>
	<g>
		<line class="st7" x1="52" y1="80" x2="52" y2="80"/>
		<line class="st7" x1="25.3" y1="95.3" x2="25.3" y2="95.3"/>
	</g>
	<path class="st6" d="M38.5,81.4c-4.3-2.5-7.8-0.4-7.8,4.6c0,1.5,0.3,3.1,0.8,4.6l10.6-6.1C41,83.2,39.8,82.1,38.5,81.4z"/>
	<path class="st6" d="M43.3,86.1l-11,6.3c0.3,0.6,0.6,1.2,1,1.8l11.1-6.3C44,87.3,43.7,86.7,43.3,86.1z"/>
</g>
</svg>
